<mxfile host="app.diagrams.net" agent="Mozilla/5.0 (Windows NT 10.0; Win64; x64) AppleWebKit/537.36 (KHTML, like Gecko) Chrome/141.0.0.0 Safari/537.36 Edg/141.0.0.0" version="28.2.7">
  <diagram name="Page-1" id="2YBvvXClWsGukQMizWep">
    <mxGraphModel grid="1" page="1" gridSize="10" guides="1" tooltips="1" connect="1" arrows="1" fold="1" pageScale="1" pageWidth="850" pageHeight="1100" math="0" shadow="0">
      <root>
        <mxCell id="0" />
        <mxCell id="1" parent="0" />
        <mxCell id="aM9ryv3xv72pqoxQDRHE-1" value=":GUI" style="shape=umlLifeline;perimeter=lifelinePerimeter;whiteSpace=wrap;html=1;container=0;dropTarget=0;collapsible=0;recursiveResize=0;outlineConnect=0;portConstraint=eastwest;newEdgeStyle={&quot;edgeStyle&quot;:&quot;elbowEdgeStyle&quot;,&quot;elbow&quot;:&quot;vertical&quot;,&quot;curved&quot;:0,&quot;rounded&quot;:0};" vertex="1" parent="1">
          <mxGeometry x="20" y="40" width="100" height="910" as="geometry" />
        </mxCell>
        <mxCell id="aM9ryv3xv72pqoxQDRHE-2" value="" style="html=1;points=[];perimeter=orthogonalPerimeter;outlineConnect=0;targetShapes=umlLifeline;portConstraint=eastwest;newEdgeStyle={&quot;edgeStyle&quot;:&quot;elbowEdgeStyle&quot;,&quot;elbow&quot;:&quot;vertical&quot;,&quot;curved&quot;:0,&quot;rounded&quot;:0};" vertex="1" parent="aM9ryv3xv72pqoxQDRHE-1">
          <mxGeometry x="45" y="70" width="10" height="760" as="geometry" />
        </mxCell>
        <mxCell id="aM9ryv3xv72pqoxQDRHE-5" value=":ControllerClass" style="shape=umlLifeline;perimeter=lifelinePerimeter;whiteSpace=wrap;html=1;container=0;dropTarget=0;collapsible=0;recursiveResize=0;outlineConnect=0;portConstraint=eastwest;newEdgeStyle={&quot;edgeStyle&quot;:&quot;elbowEdgeStyle&quot;,&quot;elbow&quot;:&quot;vertical&quot;,&quot;curved&quot;:0,&quot;rounded&quot;:0};" vertex="1" parent="1">
          <mxGeometry x="180" y="40" width="100" height="910" as="geometry" />
        </mxCell>
        <mxCell id="aM9ryv3xv72pqoxQDRHE-6" value="" style="html=1;points=[];perimeter=orthogonalPerimeter;outlineConnect=0;targetShapes=umlLifeline;portConstraint=eastwest;newEdgeStyle={&quot;edgeStyle&quot;:&quot;elbowEdgeStyle&quot;,&quot;elbow&quot;:&quot;vertical&quot;,&quot;curved&quot;:0,&quot;rounded&quot;:0};" vertex="1" parent="aM9ryv3xv72pqoxQDRHE-5">
          <mxGeometry x="45" y="80" width="10" height="730" as="geometry" />
        </mxCell>
        <mxCell id="aM9ryv3xv72pqoxQDRHE-7" value="login(mail or username, password)" style="html=1;verticalAlign=bottom;endArrow=block;edgeStyle=elbowEdgeStyle;elbow=horizontal;curved=0;rounded=0;" edge="1" parent="1" source="aM9ryv3xv72pqoxQDRHE-2" target="aM9ryv3xv72pqoxQDRHE-6">
          <mxGeometry relative="1" as="geometry">
            <mxPoint x="195" y="130" as="sourcePoint" />
            <Array as="points">
              <mxPoint x="180" y="120" />
            </Array>
          </mxGeometry>
        </mxCell>
        <mxCell id="0FoJWb9ll4OKm7dLYWCg-4" value="UserCatalog" style="shape=umlLifeline;perimeter=lifelinePerimeter;whiteSpace=wrap;html=1;container=0;dropTarget=0;collapsible=0;recursiveResize=0;outlineConnect=0;portConstraint=eastwest;newEdgeStyle={&quot;edgeStyle&quot;:&quot;elbowEdgeStyle&quot;,&quot;elbow&quot;:&quot;vertical&quot;,&quot;curved&quot;:0,&quot;rounded&quot;:0};" vertex="1" parent="1">
          <mxGeometry x="340" y="40" width="100" height="910" as="geometry" />
        </mxCell>
        <mxCell id="0FoJWb9ll4OKm7dLYWCg-5" value="" style="html=1;points=[];perimeter=orthogonalPerimeter;outlineConnect=0;targetShapes=umlLifeline;portConstraint=eastwest;newEdgeStyle={&quot;edgeStyle&quot;:&quot;elbowEdgeStyle&quot;,&quot;elbow&quot;:&quot;vertical&quot;,&quot;curved&quot;:0,&quot;rounded&quot;:0};" vertex="1" parent="0FoJWb9ll4OKm7dLYWCg-4">
          <mxGeometry x="45" y="210" width="10" height="240" as="geometry" />
        </mxCell>
        <mxCell id="0FoJWb9ll4OKm7dLYWCg-6" value=":User" style="shape=umlLifeline;perimeter=lifelinePerimeter;whiteSpace=wrap;html=1;container=0;dropTarget=0;collapsible=0;recursiveResize=0;outlineConnect=0;portConstraint=eastwest;newEdgeStyle={&quot;edgeStyle&quot;:&quot;elbowEdgeStyle&quot;,&quot;elbow&quot;:&quot;vertical&quot;,&quot;curved&quot;:0,&quot;rounded&quot;:0};" vertex="1" parent="1">
          <mxGeometry x="500" y="40" width="100" height="910" as="geometry" />
        </mxCell>
        <mxCell id="0FoJWb9ll4OKm7dLYWCg-7" value="" style="html=1;points=[];perimeter=orthogonalPerimeter;outlineConnect=0;targetShapes=umlLifeline;portConstraint=eastwest;newEdgeStyle={&quot;edgeStyle&quot;:&quot;elbowEdgeStyle&quot;,&quot;elbow&quot;:&quot;vertical&quot;,&quot;curved&quot;:0,&quot;rounded&quot;:0};" vertex="1" parent="0FoJWb9ll4OKm7dLYWCg-6">
          <mxGeometry x="45" y="260" width="10" height="380" as="geometry" />
        </mxCell>
        <mxCell id="0FoJWb9ll4OKm7dLYWCg-8" value="ContactInfo" style="shape=umlLifeline;perimeter=lifelinePerimeter;whiteSpace=wrap;html=1;container=0;dropTarget=0;collapsible=0;recursiveResize=0;outlineConnect=0;portConstraint=eastwest;newEdgeStyle={&quot;edgeStyle&quot;:&quot;elbowEdgeStyle&quot;,&quot;elbow&quot;:&quot;vertical&quot;,&quot;curved&quot;:0,&quot;rounded&quot;:0};" vertex="1" parent="1">
          <mxGeometry x="660" y="40" width="100" height="910" as="geometry" />
        </mxCell>
        <mxCell id="0FoJWb9ll4OKm7dLYWCg-9" value="" style="html=1;points=[];perimeter=orthogonalPerimeter;outlineConnect=0;targetShapes=umlLifeline;portConstraint=eastwest;newEdgeStyle={&quot;edgeStyle&quot;:&quot;elbowEdgeStyle&quot;,&quot;elbow&quot;:&quot;vertical&quot;,&quot;curved&quot;:0,&quot;rounded&quot;:0};" vertex="1" parent="0FoJWb9ll4OKm7dLYWCg-8">
          <mxGeometry x="45" y="280" width="10" height="40" as="geometry" />
        </mxCell>
        <mxCell id="0FoJWb9ll4OKm7dLYWCg-46" style="edgeStyle=orthogonalEdgeStyle;rounded=0;orthogonalLoop=1;jettySize=auto;html=1;" edge="1" parent="1">
          <mxGeometry relative="1" as="geometry">
            <mxPoint x="-24" y="110" as="sourcePoint" />
            <mxPoint x="65.5" y="110" as="targetPoint" />
            <Array as="points">
              <mxPoint x="26" y="110" />
              <mxPoint x="26" y="110" />
            </Array>
          </mxGeometry>
        </mxCell>
        <mxCell id="0FoJWb9ll4OKm7dLYWCg-10" value="User" style="shape=umlActor;verticalLabelPosition=bottom;verticalAlign=top;html=1;outlineConnect=0;" vertex="1" parent="1">
          <mxGeometry x="-50" y="80" width="30" height="60" as="geometry" />
        </mxCell>
        <mxCell id="0FoJWb9ll4OKm7dLYWCg-15" value="if any field empty" style="shape=umlFrame;whiteSpace=wrap;html=1;pointerEvents=0;" vertex="1" parent="1">
          <mxGeometry x="-10" y="170" width="810" height="50" as="geometry" />
        </mxCell>
        <mxCell id="0FoJWb9ll4OKm7dLYWCg-16" value="else" style="shape=umlFrame;whiteSpace=wrap;html=1;pointerEvents=0;" vertex="1" parent="1">
          <mxGeometry x="-10" y="220" width="810" height="690" as="geometry" />
        </mxCell>
        <mxCell id="0FoJWb9ll4OKm7dLYWCg-17" value="Display &quot;enter all fields&quot;" style="html=1;verticalAlign=bottom;endArrow=open;dashed=1;endSize=8;edgeStyle=elbowEdgeStyle;elbow=vertical;curved=0;rounded=0;" edge="1" parent="1">
          <mxGeometry relative="1" as="geometry">
            <mxPoint x="75" y="213" as="targetPoint" />
            <Array as="points">
              <mxPoint x="190" y="213" />
            </Array>
            <mxPoint x="225" y="213" as="sourcePoint" />
          </mxGeometry>
        </mxCell>
        <mxCell id="0FoJWb9ll4OKm7dLYWCg-19" value="CheckEmptyinput()" style="html=1;align=left;spacingLeft=2;endArrow=block;rounded=0;edgeStyle=orthogonalEdgeStyle;curved=0;rounded=0;" edge="1" parent="1" target="aM9ryv3xv72pqoxQDRHE-6">
          <mxGeometry relative="1" as="geometry">
            <mxPoint x="235" y="130" as="sourcePoint" />
            <Array as="points">
              <mxPoint x="265" y="130" />
              <mxPoint x="265" y="160" />
            </Array>
            <mxPoint x="240" y="160" as="targetPoint" />
            <mxPoint as="offset" />
          </mxGeometry>
        </mxCell>
        <mxCell id="0FoJWb9ll4OKm7dLYWCg-20" value="&lt;br&gt;GetUserByEmailorUsername()" style="html=1;verticalAlign=bottom;endArrow=block;edgeStyle=elbowEdgeStyle;elbow=horizontal;curved=0;rounded=0;" edge="1" parent="1">
          <mxGeometry relative="1" as="geometry">
            <mxPoint x="235" y="250" as="sourcePoint" />
            <Array as="points">
              <mxPoint x="340" y="250" />
            </Array>
            <mxPoint x="385" y="250" as="targetPoint" />
          </mxGeometry>
        </mxCell>
        <mxCell id="0FoJWb9ll4OKm7dLYWCg-21" value="for each user" style="shape=umlFrame;whiteSpace=wrap;html=1;pointerEvents=0;" vertex="1" parent="1">
          <mxGeometry x="365" y="260" width="385" height="250" as="geometry" />
        </mxCell>
        <mxCell id="0FoJWb9ll4OKm7dLYWCg-22" value="MatchEmail()" style="html=1;verticalAlign=bottom;endArrow=block;edgeStyle=elbowEdgeStyle;elbow=vertical;curved=0;rounded=0;" edge="1" parent="1">
          <mxGeometry relative="1" as="geometry">
            <mxPoint x="394" y="302" as="sourcePoint" />
            <Array as="points">
              <mxPoint x="499" y="302" />
            </Array>
            <mxPoint x="544" y="302" as="targetPoint" />
          </mxGeometry>
        </mxCell>
        <mxCell id="0FoJWb9ll4OKm7dLYWCg-23" value="isMatched(email)" style="html=1;verticalAlign=bottom;endArrow=block;edgeStyle=elbowEdgeStyle;elbow=vertical;curved=0;rounded=0;" edge="1" parent="1">
          <mxGeometry relative="1" as="geometry">
            <mxPoint x="556" y="318.5" as="sourcePoint" />
            <Array as="points">
              <mxPoint x="661" y="318.5" />
            </Array>
            <mxPoint x="706" y="318.5" as="targetPoint" />
          </mxGeometry>
        </mxCell>
        <mxCell id="0FoJWb9ll4OKm7dLYWCg-24" value="return isMatch" style="html=1;verticalAlign=bottom;endArrow=open;dashed=1;endSize=8;edgeStyle=elbowEdgeStyle;elbow=vertical;curved=0;rounded=0;" edge="1" parent="1">
          <mxGeometry relative="1" as="geometry">
            <mxPoint x="554" y="342.5" as="targetPoint" />
            <Array as="points">
              <mxPoint x="669" y="342.5" />
            </Array>
            <mxPoint x="704" y="342.5" as="sourcePoint" />
          </mxGeometry>
        </mxCell>
        <mxCell id="0FoJWb9ll4OKm7dLYWCg-25" value="return isFound" style="html=1;verticalAlign=bottom;endArrow=open;dashed=1;endSize=8;edgeStyle=elbowEdgeStyle;elbow=vertical;curved=0;rounded=0;" edge="1" parent="1">
          <mxGeometry relative="1" as="geometry">
            <mxPoint x="395" y="359" as="targetPoint" />
            <Array as="points">
              <mxPoint x="510" y="359" />
            </Array>
            <mxPoint x="545" y="359" as="sourcePoint" />
          </mxGeometry>
        </mxCell>
        <mxCell id="0FoJWb9ll4OKm7dLYWCg-26" value="if notFound" style="shape=umlFrame;whiteSpace=wrap;html=1;pointerEvents=0;" vertex="1" parent="1">
          <mxGeometry x="160" y="530" width="600" height="70" as="geometry" />
        </mxCell>
        <mxCell id="0FoJWb9ll4OKm7dLYWCg-28" value="Display &quot;User Doesnt&lt;br&gt;Exist&quot;" style="html=1;verticalAlign=bottom;endArrow=open;dashed=1;endSize=8;edgeStyle=elbowEdgeStyle;elbow=vertical;curved=0;rounded=0;" edge="1" parent="1">
          <mxGeometry relative="1" as="geometry">
            <mxPoint x="75" y="594" as="targetPoint" />
            <Array as="points">
              <mxPoint x="190" y="594" />
            </Array>
            <mxPoint x="225" y="594" as="sourcePoint" />
          </mxGeometry>
        </mxCell>
        <mxCell id="0FoJWb9ll4OKm7dLYWCg-29" value="else" style="shape=umlFrame;whiteSpace=wrap;html=1;pointerEvents=0;" vertex="1" parent="1">
          <mxGeometry x="160" y="600" width="600" height="290" as="geometry" />
        </mxCell>
        <mxCell id="0FoJWb9ll4OKm7dLYWCg-30" value="if isfound" style="shape=umlFrame;whiteSpace=wrap;html=1;pointerEvents=0;" vertex="1" parent="1">
          <mxGeometry x="370" y="368" width="220" height="40" as="geometry" />
        </mxCell>
        <mxCell id="0FoJWb9ll4OKm7dLYWCg-31" value="return Found?" style="html=1;verticalAlign=bottom;endArrow=open;dashed=1;endSize=8;edgeStyle=elbowEdgeStyle;elbow=horizontal;curved=0;rounded=0;" edge="1" parent="1">
          <mxGeometry relative="1" as="geometry">
            <mxPoint x="234" y="404" as="targetPoint" />
            <Array as="points">
              <mxPoint x="349" y="404" />
            </Array>
            <mxPoint x="384" y="404" as="sourcePoint" />
          </mxGeometry>
        </mxCell>
        <mxCell id="0FoJWb9ll4OKm7dLYWCg-32" value="else" style="shape=umlFrame;whiteSpace=wrap;html=1;pointerEvents=0;" vertex="1" parent="1">
          <mxGeometry x="370" y="409" width="220" height="91" as="geometry" />
        </mxCell>
        <mxCell id="0FoJWb9ll4OKm7dLYWCg-33" value="MatchUsername()" style="html=1;verticalAlign=bottom;endArrow=block;edgeStyle=elbowEdgeStyle;elbow=vertical;curved=0;rounded=0;" edge="1" parent="1">
          <mxGeometry relative="1" as="geometry">
            <mxPoint x="395" y="450" as="sourcePoint" />
            <Array as="points">
              <mxPoint x="500" y="450" />
            </Array>
            <mxPoint x="545" y="450" as="targetPoint" />
          </mxGeometry>
        </mxCell>
        <mxCell id="0FoJWb9ll4OKm7dLYWCg-34" value="return isFound" style="html=1;verticalAlign=bottom;endArrow=open;dashed=1;endSize=8;edgeStyle=elbowEdgeStyle;elbow=vertical;curved=0;rounded=0;" edge="1" parent="1">
          <mxGeometry relative="1" as="geometry">
            <mxPoint x="395" y="470" as="targetPoint" />
            <Array as="points">
              <mxPoint x="510" y="470" />
            </Array>
            <mxPoint x="545" y="470" as="sourcePoint" />
          </mxGeometry>
        </mxCell>
        <mxCell id="0FoJWb9ll4OKm7dLYWCg-35" value="return Found?" style="html=1;verticalAlign=bottom;endArrow=open;dashed=1;endSize=8;edgeStyle=elbowEdgeStyle;elbow=horizontal;curved=0;rounded=0;" edge="1" parent="1">
          <mxGeometry relative="1" as="geometry">
            <mxPoint x="234" y="490" as="targetPoint" />
            <Array as="points">
              <mxPoint x="349" y="490" />
            </Array>
            <mxPoint x="384" y="490" as="sourcePoint" />
          </mxGeometry>
        </mxCell>
        <mxCell id="0FoJWb9ll4OKm7dLYWCg-36" value="ValidatePassword(password)" style="html=1;verticalAlign=bottom;endArrow=block;edgeStyle=elbowEdgeStyle;elbow=vertical;curved=0;rounded=0;" edge="1" parent="1" target="0FoJWb9ll4OKm7dLYWCg-7">
          <mxGeometry relative="1" as="geometry">
            <mxPoint x="230" y="630" as="sourcePoint" />
            <Array as="points">
              <mxPoint x="335" y="630" />
            </Array>
            <mxPoint x="380" y="630" as="targetPoint" />
          </mxGeometry>
        </mxCell>
        <mxCell id="0FoJWb9ll4OKm7dLYWCg-37" value="return isValid" style="html=1;verticalAlign=bottom;endArrow=open;dashed=1;endSize=8;edgeStyle=elbowEdgeStyle;elbow=horizontal;curved=0;rounded=0;" edge="1" parent="1" target="aM9ryv3xv72pqoxQDRHE-6">
          <mxGeometry relative="1" as="geometry">
            <mxPoint x="390" y="660" as="targetPoint" />
            <Array as="points">
              <mxPoint x="505" y="660" />
            </Array>
            <mxPoint x="540" y="660" as="sourcePoint" />
          </mxGeometry>
        </mxCell>
        <mxCell id="0FoJWb9ll4OKm7dLYWCg-38" value="if isValid" style="shape=umlFrame;whiteSpace=wrap;html=1;pointerEvents=0;" vertex="1" parent="1">
          <mxGeometry x="210" y="680" width="230" height="110" as="geometry" />
        </mxCell>
        <mxCell id="0FoJWb9ll4OKm7dLYWCg-40" value="SetCurrentUser(User)" style="html=1;align=left;spacingLeft=2;endArrow=block;rounded=0;edgeStyle=orthogonalEdgeStyle;curved=0;rounded=0;" edge="1" parent="1" target="aM9ryv3xv72pqoxQDRHE-6">
          <mxGeometry relative="1" as="geometry">
            <mxPoint x="236" y="721" as="sourcePoint" />
            <Array as="points">
              <mxPoint x="266" y="721" />
              <mxPoint x="266" y="751" />
            </Array>
            <mxPoint x="241" y="751" as="targetPoint" />
          </mxGeometry>
        </mxCell>
        <mxCell id="0FoJWb9ll4OKm7dLYWCg-41" value="Display &quot;login Success&quot;" style="html=1;verticalAlign=bottom;endArrow=open;dashed=1;endSize=8;edgeStyle=elbowEdgeStyle;elbow=horizontal;curved=0;rounded=0;" edge="1" parent="1">
          <mxGeometry relative="1" as="geometry">
            <mxPoint x="75" y="780" as="targetPoint" />
            <Array as="points">
              <mxPoint x="190" y="780" />
            </Array>
            <mxPoint x="225" y="780" as="sourcePoint" />
          </mxGeometry>
        </mxCell>
        <mxCell id="0FoJWb9ll4OKm7dLYWCg-42" value="if isValid" style="shape=umlFrame;whiteSpace=wrap;html=1;pointerEvents=0;" vertex="1" parent="1">
          <mxGeometry x="210" y="790" width="230" height="70" as="geometry" />
        </mxCell>
        <mxCell id="0FoJWb9ll4OKm7dLYWCg-43" value="Display &quot;invalid Password&quot;" style="html=1;verticalAlign=bottom;endArrow=open;dashed=1;endSize=8;edgeStyle=elbowEdgeStyle;elbow=vertical;curved=0;rounded=0;" edge="1" parent="1">
          <mxGeometry relative="1" as="geometry">
            <mxPoint x="74" y="850" as="targetPoint" />
            <Array as="points">
              <mxPoint x="189" y="850" />
            </Array>
            <mxPoint x="224" y="850" as="sourcePoint" />
          </mxGeometry>
        </mxCell>
      </root>
    </mxGraphModel>
  </diagram>
</mxfile>
